<svg width="123" height="44" viewBox="0 0 123 44" fill="none" xmlns="http://www.w3.org/2000/svg">
<g clip-path="url(#clip0_11687_66503)">
<path d="M54.766 33.2035C54.4301 33.2144 54.0964 33.1452 53.7918 33.0017C53.5363 32.8733 53.3309 32.662 53.2087 32.4015C53.0734 32.0955 53.0084 31.7625 53.0184 31.4275V29.1926H52.245C52.2148 29.1939 52.1846 29.1887 52.1565 29.1775C52.1284 29.1664 52.1029 29.1493 52.0817 29.1276C52.0605 29.1059 52.0441 29.0799 52.0334 29.0513C52.0228 29.0228 52.0182 28.9923 52.0199 28.9618V28.4441C52.0192 28.414 52.0244 28.3841 52.0353 28.356C52.0462 28.328 52.0625 28.3025 52.0833 28.2809C52.1041 28.2588 52.1292 28.2414 52.157 28.2297C52.1849 28.2181 52.2148 28.2125 52.245 28.2133H53.0184V26.6207C53.0176 26.5897 53.0232 26.5588 53.0348 26.5301C53.0464 26.5013 53.0638 26.4753 53.0858 26.4536C53.1079 26.432 53.1341 26.4151 53.1629 26.4042C53.1916 26.3932 53.2223 26.3884 53.253 26.3899H53.9969C54.0277 26.3884 54.0584 26.3932 54.0872 26.4042C54.116 26.4151 54.1423 26.4319 54.1644 26.4536C54.1865 26.4752 54.2039 26.5012 54.2156 26.53C54.2273 26.5588 54.2331 26.5896 54.2324 26.6207V28.2133H55.4551C55.486 28.2128 55.5167 28.2185 55.5453 28.2301C55.574 28.2417 55.6 28.259 55.622 28.2809C55.644 28.3018 55.6614 28.3272 55.6732 28.3552C55.685 28.3833 55.691 28.4136 55.6906 28.4441V28.9618C55.6917 28.994 55.6856 29.0259 55.6728 29.0554C55.66 29.0848 55.6409 29.111 55.6168 29.132C55.5713 29.174 55.5115 29.1966 55.4499 29.1952H54.2263V31.3345C54.2153 31.5522 54.266 31.7686 54.3723 31.9584C54.4702 32.1122 54.6368 32.1889 54.872 32.1883H55.5377C55.5698 32.1865 55.6018 32.1916 55.6318 32.2032C55.6617 32.2149 55.6889 32.2328 55.7115 32.2558C55.7323 32.2774 55.7486 32.303 55.7595 32.331C55.7704 32.359 55.7756 32.389 55.7749 32.4191V32.9754C55.7756 33.0055 55.7704 33.0354 55.7595 33.0634C55.7486 33.0915 55.7323 33.117 55.7115 33.1386C55.6889 33.1616 55.6617 33.1796 55.6318 33.1912C55.6018 33.2029 55.5698 33.2079 55.5377 33.2061L54.766 33.2035Z" fill="#212121"/>
<path d="M59.8087 33.2991C59.0908 33.2991 58.5213 33.0943 58.1002 32.6848C57.679 32.2753 57.4522 31.6965 57.4197 30.9483C57.4136 30.8842 57.4102 30.8009 57.4102 30.6982C57.4102 30.5956 57.4102 30.5131 57.4197 30.449C57.4336 30.0144 57.5475 29.589 57.7526 29.2065C57.9426 28.8638 58.2265 28.5838 58.5703 28.4001C58.9534 28.2034 59.379 28.1063 59.8087 28.1176C60.3301 28.1176 60.7689 28.2246 61.1252 28.4387C61.4763 28.6484 61.7575 28.9591 61.9326 29.3311C62.1214 29.7411 62.215 30.1892 62.2063 30.6412V30.8421C62.2068 30.8727 62.201 30.903 62.1892 30.9311C62.1774 30.9592 62.1598 30.9845 62.1377 31.0053C62.1145 31.0277 62.0873 31.0451 62.0575 31.0567C62.0276 31.0683 61.9958 31.0738 61.9638 31.0729H58.6928V31.1501C58.7029 31.3686 58.7527 31.5834 58.8397 31.7837C58.9194 31.97 59.048 32.1308 59.2116 32.2487C59.3835 32.3692 59.5891 32.4307 59.7982 32.4242C59.961 32.429 60.123 32.3991 60.2736 32.3365C60.3863 32.288 60.4917 32.2236 60.5864 32.1452C60.6504 32.0931 60.7087 32.0343 60.7602 31.9697C60.7972 31.9133 60.8458 31.8657 60.9028 31.8302C60.9543 31.8118 61.0089 31.8037 61.0635 31.8065H61.857C61.9162 31.8043 61.974 31.825 62.0186 31.8644C62.0388 31.8819 62.0543 31.9043 62.0637 31.9294C62.0731 31.9545 62.0761 31.9817 62.0725 32.0083C62.0513 32.1448 61.9956 32.2736 61.9108 32.3821C61.7908 32.5481 61.6439 32.6926 61.4763 32.8094C61.2603 32.9602 61.0226 33.0765 60.7715 33.1543C60.4603 33.2541 60.1352 33.3029 59.8087 33.2991ZM58.6928 30.2858H60.9245V30.2569C60.9293 30.0261 60.8842 29.797 60.7924 29.5856C60.7104 29.4013 60.5777 29.2448 60.41 29.1346C60.2271 29.0276 60.0196 28.9713 59.8082 28.9713C59.5969 28.9713 59.3893 29.0276 59.2064 29.1346C59.0387 29.2444 58.9062 29.4011 58.8249 29.5856C58.7328 29.7969 58.6878 30.026 58.6928 30.2569V30.2858Z" fill="#212121"/>
<path d="M64.4866 33.2038C64.4559 33.2043 64.4253 33.1987 64.3968 33.1871C64.3683 33.1754 64.3424 33.1581 64.3206 33.1362C64.2985 33.1154 64.2809 33.0901 64.2691 33.062C64.2573 33.0338 64.2514 33.0035 64.252 32.973V26.621C64.2514 26.5904 64.2573 26.5601 64.2691 26.532C64.2809 26.5038 64.2985 26.4786 64.3206 26.4577C64.3424 26.4358 64.3683 26.4185 64.3968 26.4069C64.4253 26.3953 64.4559 26.3896 64.4866 26.3902H65.2505C65.2814 26.3897 65.312 26.3954 65.3407 26.407C65.3693 26.4186 65.3954 26.4358 65.4174 26.4577C65.4392 26.4787 65.4565 26.5041 65.4682 26.5322C65.4799 26.5603 65.4856 26.5905 65.4851 26.621V32.973C65.4856 33.0034 65.4799 33.0337 65.4682 33.0618C65.4565 33.0899 65.4392 33.1152 65.4174 33.1362C65.3954 33.1581 65.3693 33.1754 65.3407 33.187C65.312 33.1986 65.2814 33.2043 65.2505 33.2038H64.4866Z" fill="#212121"/>
<path d="M69.9571 33.299C69.2393 33.299 68.6698 33.0943 68.2486 32.6848C67.8274 32.2753 67.6006 31.6965 67.5682 30.9483C67.5621 30.8842 67.5586 30.8009 67.5586 30.6982C67.5586 30.5955 67.5586 30.513 67.5682 30.449C67.582 30.0143 67.696 29.5889 67.901 29.2065C68.091 28.8638 68.375 28.5838 68.7187 28.4001C69.1019 28.2036 69.5275 28.1065 69.9571 28.1175C70.4785 28.1175 70.9174 28.2246 71.2737 28.4387C71.625 28.6481 71.9062 28.9589 72.081 29.3311C72.2698 29.741 72.3634 30.1891 72.3547 30.6412V30.8421C72.3553 30.8726 72.3495 30.903 72.3376 30.9311C72.3258 30.9592 72.3082 30.9845 72.2861 31.0053C72.263 31.0276 72.2357 31.0451 72.2059 31.0567C72.1761 31.0683 72.1442 31.0738 72.1123 31.0729H68.843V31.1501C68.8531 31.3686 68.9029 31.5833 68.9899 31.7836C69.0696 31.97 69.1982 32.1308 69.3618 32.2487C69.534 32.3692 69.7399 32.4307 69.9493 32.4242C70.1118 32.4289 70.2735 32.399 70.4238 32.3364C70.5365 32.288 70.6418 32.2236 70.7366 32.1451C70.8006 32.0931 70.8589 32.0343 70.9104 31.9696C70.9474 31.9133 70.996 31.8657 71.0529 31.8301C71.1045 31.8118 71.1591 31.8037 71.2137 31.8064H72.0071C72.0663 31.8043 72.1241 31.825 72.1688 31.8644C72.189 31.8819 72.2045 31.9042 72.2139 31.9294C72.2233 31.9545 72.2263 31.9816 72.2226 32.0083C72.2015 32.1448 72.1458 32.2735 72.061 32.3821C71.9409 32.5481 71.794 32.6926 71.6265 32.8094C71.4107 32.96 71.1733 33.0763 70.9226 33.1542C70.6105 33.2541 70.2845 33.303 69.9571 33.299ZM68.8413 30.2858H71.0729V30.2568C71.0777 30.026 71.0327 29.797 70.9408 29.5856C70.8589 29.4013 70.7261 29.2447 70.5585 29.1345C70.3756 29.0276 70.168 28.9713 69.9567 28.9713C69.7453 28.9713 69.5377 29.0276 69.3549 29.1345C69.1875 29.2449 69.0551 29.4014 68.9734 29.5856C68.8813 29.7969 68.8362 30.026 68.8413 30.2568V30.2858Z" fill="#212121"/>
<path d="M74.6273 33.2034C74.5965 33.204 74.566 33.1984 74.5374 33.1867C74.5089 33.1751 74.483 33.1578 74.4613 33.1359C74.4391 33.1151 74.4216 33.0898 74.4097 33.0616C74.3979 33.0335 74.3921 33.0032 74.3926 32.9727V28.444C74.3921 28.4135 74.3979 28.3832 74.4097 28.355C74.4216 28.3269 74.4391 28.3016 74.4613 28.2808C74.483 28.2589 74.5089 28.2416 74.5374 28.2299C74.566 28.2183 74.5965 28.2127 74.6273 28.2132H75.3451C75.3758 28.2117 75.4065 28.2165 75.4353 28.2275C75.464 28.2384 75.4902 28.2553 75.5123 28.2769C75.5343 28.2986 75.5517 28.3246 75.5633 28.3534C75.5749 28.3821 75.5805 28.413 75.5797 28.444V28.7696C75.7489 28.5633 75.9615 28.3978 76.202 28.285C76.4425 28.1722 76.705 28.115 76.9701 28.1176C77.714 28.1047 78.2328 28.3893 78.5266 28.9714C78.6837 28.7092 78.9088 28.4953 79.1775 28.3528C79.4673 28.1944 79.7925 28.1134 80.1221 28.1176C80.4465 28.112 80.7668 28.1912 81.0519 28.3475C81.3332 28.5082 81.56 28.7507 81.7028 29.0433C81.8627 29.354 81.9427 29.7459 81.9427 30.2192V32.9727C81.9434 33.0028 81.9382 33.0327 81.9273 33.0607C81.9164 33.0887 81.9001 33.1143 81.8793 33.1359C81.8567 33.1589 81.8295 33.1768 81.7995 33.1885C81.7696 33.2001 81.7375 33.2052 81.7055 33.2034H80.952C80.9211 33.204 80.8905 33.1983 80.8618 33.1867C80.8332 33.1751 80.8071 33.1578 80.7852 33.1359C80.763 33.1151 80.7455 33.0898 80.7336 33.0616C80.7218 33.0335 80.716 33.0032 80.7165 32.9727V30.2955C80.7279 30.0543 80.6826 29.8137 80.5844 29.5935C80.5102 29.4377 80.3883 29.31 80.2368 29.2294C80.086 29.1547 79.9199 29.1169 79.7519 29.1188C79.5936 29.1192 79.4377 29.1571 79.2965 29.2294C79.1419 29.3105 79.0157 29.4376 78.935 29.5935C78.8299 29.8117 78.7809 30.0531 78.7925 30.2955V32.9727C78.7932 33.0037 78.7876 33.0346 78.776 33.0633C78.7644 33.0921 78.7471 33.1181 78.7251 33.1398C78.703 33.1614 78.6768 33.1783 78.648 33.1892C78.6193 33.2002 78.5886 33.205 78.5578 33.2034H77.8044C77.7735 33.2039 77.7429 33.1982 77.7142 33.1866C77.6856 33.175 77.6595 33.1578 77.6376 33.1359C77.6156 33.1149 77.5981 33.0896 77.5863 33.0615C77.5745 33.0334 77.5686 33.0032 77.5689 32.9727V30.2955C77.5805 30.0538 77.5337 29.8129 77.4325 29.5935C77.3539 29.4375 77.229 29.3102 77.0753 29.2294C76.9276 29.1555 76.7648 29.1177 76.5999 29.1188C76.442 29.1192 76.2863 29.1571 76.1454 29.2294C75.9907 29.3106 75.8643 29.4377 75.7831 29.5935C75.6783 29.8118 75.6296 30.0532 75.6414 30.2955V32.9727C75.6417 33.0032 75.6358 33.0334 75.624 33.0615C75.6122 33.0896 75.5947 33.1149 75.5727 33.1359C75.5508 33.1578 75.5247 33.175 75.4961 33.1866C75.4674 33.1982 75.4368 33.2039 75.4059 33.2034H74.6273Z" fill="#212121"/>
<path d="M86.3625 33.299C85.6447 33.299 85.0755 33.0943 84.6548 32.6848C84.2342 32.2753 84.0074 31.6965 83.9744 30.9483C83.9617 30.7821 83.9617 30.6152 83.9744 30.449C83.9883 30.0143 84.1022 29.5889 84.3072 29.2065C84.497 28.8639 84.7806 28.5839 85.1241 28.4001C85.5073 28.2036 85.9329 28.1065 86.3625 28.1175C86.8839 28.1175 87.3228 28.2246 87.6791 28.4387C88.0304 28.6481 88.3115 28.9589 88.4864 29.3311C88.6755 29.741 88.7694 30.1891 88.761 30.6412V30.8421C88.7613 30.8726 88.7554 30.9029 88.7436 30.931C88.7318 30.959 88.7143 30.9844 88.6923 31.0053C88.6692 31.0275 88.6419 31.045 88.6121 31.0565C88.5823 31.0681 88.5505 31.0737 88.5185 31.0729H85.251V31.1501C85.2611 31.3686 85.3109 31.5833 85.3979 31.7836C85.4775 31.97 85.6062 32.1308 85.7698 32.2487C85.942 32.3691 86.1479 32.4306 86.3573 32.4242C86.5198 32.4291 86.6815 32.3992 86.8318 32.3364C86.9449 32.2882 87.0505 32.2238 87.1455 32.1451C87.209 32.0926 87.2672 32.0338 87.3193 31.9696C87.356 31.9134 87.4043 31.8658 87.4609 31.8301C87.5128 31.8117 87.5677 31.8037 87.6226 31.8064H88.4151C88.4743 31.8043 88.5321 31.825 88.5768 31.8644C88.5971 31.8818 88.6127 31.9041 88.6221 31.9293C88.6315 31.9544 88.6345 31.9816 88.6306 32.0083C88.6094 32.1448 88.5538 32.2735 88.469 32.3821C88.3492 32.5484 88.2023 32.6929 88.0345 32.8094C87.8184 32.96 87.5807 33.0763 87.3297 33.1542C87.017 33.2543 86.6905 33.3032 86.3625 33.299ZM85.251 30.2858H87.4827V30.2568C87.4875 30.026 87.4424 29.797 87.3506 29.5856C87.2688 29.4014 87.1364 29.2449 86.9691 29.1345C86.786 29.0276 86.5783 28.9713 86.3668 28.9713C86.1554 28.9713 85.9476 29.0276 85.7646 29.1345C85.5972 29.2449 85.4648 29.4014 85.3831 29.5856C85.2913 29.797 85.2462 30.026 85.251 30.2568V30.2858Z" fill="#212121"/>
<path d="M92.6859 33.2994C92.3753 33.3053 92.0668 33.2456 91.7804 33.1239C91.5328 33.0165 91.3135 32.8521 91.1399 32.6439C90.9651 32.4307 90.8336 32.1847 90.7532 31.92C90.6617 31.6257 90.6074 31.3208 90.5916 31.0127C90.5846 30.8978 90.582 30.7942 90.582 30.7012C90.582 30.6082 90.582 30.5046 90.5916 30.3888C90.6026 30.0876 90.6534 29.7893 90.7428 29.5017C90.8245 29.2362 90.9577 28.9898 91.1347 28.7769C91.3119 28.5693 91.5324 28.4039 91.7804 28.2925C92.0663 28.1693 92.3751 28.1094 92.6859 28.117C92.9959 28.1079 93.3038 28.1704 93.5863 28.2996C93.8187 28.4082 94.0259 28.5648 94.1946 28.7594V26.621C94.194 26.5904 94.1999 26.5601 94.2117 26.532C94.2235 26.5038 94.2411 26.4786 94.2632 26.4577C94.285 26.4358 94.3109 26.4185 94.3394 26.4069C94.3679 26.3953 94.3985 26.3896 94.4292 26.3902H95.2226C95.2533 26.3898 95.2838 26.3956 95.3123 26.4072C95.3408 26.4188 95.3668 26.4359 95.3886 26.4577C95.4106 26.4787 95.428 26.504 95.4398 26.5321C95.4517 26.5602 95.4576 26.5904 95.4573 26.621V32.973C95.4576 33.0035 95.4517 33.0337 95.4398 33.0618C95.428 33.0899 95.4106 33.1152 95.3886 33.1362C95.3668 33.158 95.3408 33.1752 95.3123 33.1868C95.2838 33.1984 95.2533 33.2041 95.2226 33.2038H94.4883C94.4574 33.2043 94.4268 33.1986 94.3981 33.187C94.3695 33.1754 94.3434 33.1581 94.3214 33.1362C94.2995 33.1152 94.282 33.0899 94.2702 33.0618C94.2584 33.0337 94.2525 33.0035 94.2528 32.973V32.6088C94.0837 32.8182 93.8717 32.9883 93.6314 33.1072C93.3355 33.245 93.0117 33.3108 92.6859 33.2994ZM93.0336 32.3017C93.2694 32.3129 93.5025 32.2471 93.6984 32.1139C93.8644 31.9945 93.9934 31.8299 94.0703 31.6392C94.1478 31.4502 94.1911 31.2487 94.198 31.0443C94.2235 30.7987 94.2235 30.5511 94.198 30.3055C94.192 30.1092 94.1452 29.9164 94.0607 29.7395C93.9757 29.5603 93.846 29.4064 93.6845 29.2929C93.4906 29.1679 93.2633 29.1066 93.0336 29.1174C92.7974 29.1048 92.5631 29.1661 92.3627 29.2929C92.1972 29.4097 92.0722 29.576 92.0055 29.7684C91.9311 29.9782 91.8881 30.1979 91.8777 30.4204C91.8647 30.6121 91.8647 30.8044 91.8777 30.996C91.888 31.2188 91.931 31.4389 92.0055 31.6489C92.0722 31.8411 92.1972 32.0071 92.3627 32.1236C92.5614 32.2508 92.7942 32.313 93.0292 32.3017H93.0336Z" fill="#212121"/>
<path d="M97.9386 27.377C97.9078 27.3775 97.8771 27.3718 97.8485 27.3602C97.8198 27.3486 97.7937 27.3313 97.7718 27.3094C97.7498 27.2885 97.7324 27.2632 97.7205 27.2351C97.7087 27.207 97.7028 27.1767 97.7031 27.1462V26.475C97.7028 26.4444 97.7087 26.4142 97.7205 26.3861C97.7324 26.358 97.7498 26.3327 97.7718 26.3117C97.7937 26.2898 97.8198 26.2726 97.8485 26.261C97.8771 26.2494 97.9078 26.2437 97.9386 26.2442H98.8077C98.8384 26.2436 98.869 26.2493 98.8975 26.2609C98.926 26.2725 98.9519 26.2898 98.9737 26.3117C98.9958 26.3326 99.0134 26.3579 99.0252 26.386C99.037 26.4141 99.0428 26.4444 99.0423 26.475V27.1462C99.0428 27.1768 99.037 27.2071 99.0252 27.2352C99.0134 27.2633 98.9958 27.2886 98.9737 27.3094C98.9519 27.3314 98.926 27.3487 98.8975 27.3603C98.869 27.3719 98.8384 27.3776 98.8077 27.377H97.9386ZM97.9873 33.2017C97.9566 33.2023 97.926 33.1966 97.8975 33.185C97.869 33.1734 97.8431 33.1561 97.8213 33.1341C97.7992 33.1133 97.7816 33.088 97.7698 33.0599C97.758 33.0318 97.7521 33.0014 97.7527 32.9709V28.444C97.7521 28.4135 97.758 28.3831 97.7698 28.355C97.7816 28.3269 97.7992 28.3016 97.8213 28.2808C97.8431 28.2588 97.869 28.2415 97.8975 28.2299C97.926 28.2183 97.9566 28.2126 97.9873 28.2132H98.7512C98.7819 28.2117 98.8126 28.2165 98.8414 28.2274C98.8701 28.2384 98.8964 28.2552 98.9184 28.2769C98.9404 28.2986 98.9578 28.3246 98.9694 28.3534C98.981 28.3821 98.9866 28.413 98.9858 28.444V32.9726C98.9866 33.0037 98.981 33.0345 98.9694 33.0633C98.9578 33.0921 98.9404 33.1181 98.9184 33.1397C98.8964 33.1614 98.8701 33.1782 98.8414 33.1892C98.8126 33.2002 98.7819 33.205 98.7512 33.2034L97.9873 33.2017Z" fill="#212121"/>
<path d="M103.472 33.2993C103.047 33.3085 102.625 33.2199 102.239 33.0404C101.897 32.8786 101.61 32.6177 101.415 32.2911C101.21 31.9267 101.098 31.516 101.092 31.0968C101.086 31.0003 101.082 30.8748 101.082 30.7177C101.082 30.5607 101.082 30.4317 101.092 30.329C101.098 29.909 101.209 29.4974 101.415 29.1322C101.609 28.8046 101.895 28.5426 102.237 28.3793C102.623 28.1994 103.045 28.1108 103.47 28.1204C103.83 28.1121 104.188 28.1689 104.528 28.288C104.792 28.3827 105.037 28.5278 105.247 28.7154C105.419 28.8692 105.561 29.0529 105.668 29.2576C105.754 29.416 105.806 29.591 105.82 29.771C105.824 29.8025 105.82 29.8347 105.808 29.8641C105.796 29.8936 105.776 29.9193 105.751 29.9386C105.704 29.978 105.645 30 105.584 30.0009H104.772C104.717 30.0045 104.663 29.9873 104.621 29.9526C104.576 29.9094 104.541 29.857 104.518 29.799C104.446 29.579 104.307 29.3875 104.121 29.2524C103.931 29.137 103.712 29.0803 103.49 29.0892C103.343 29.0822 103.197 29.1059 103.059 29.1587C102.922 29.2116 102.797 29.2924 102.692 29.3963C102.493 29.6016 102.384 29.9228 102.365 30.3755C102.358 30.6189 102.358 30.8426 102.365 31.0468C102.384 31.5013 102.493 31.8292 102.692 32.0304C102.798 32.133 102.923 32.2127 103.06 32.2646C103.198 32.3165 103.344 32.3395 103.49 32.3323C103.713 32.3427 103.935 32.2859 104.126 32.1691C104.31 32.0328 104.447 31.8416 104.518 31.6224C104.542 31.5648 104.577 31.5125 104.621 31.4689C104.664 31.4348 104.717 31.4179 104.772 31.4215H105.586C105.647 31.4219 105.706 31.4439 105.753 31.4838C105.778 31.5031 105.798 31.5288 105.81 31.5582C105.822 31.5877 105.826 31.6198 105.822 31.6514C105.81 31.7869 105.777 31.9196 105.723 32.0445C105.658 32.2028 105.57 32.3506 105.463 32.4832C105.335 32.6398 105.185 32.7759 105.017 32.8869C104.815 33.0186 104.594 33.1188 104.362 33.1843C104.072 33.2652 103.772 33.3039 103.472 33.2993Z" fill="#212121"/>
<path d="M108.015 27.377C107.984 27.3777 107.953 27.372 107.925 27.3604C107.896 27.3488 107.87 27.3315 107.848 27.3094C107.826 27.2886 107.808 27.2633 107.796 27.2352C107.785 27.2071 107.779 27.1768 107.779 27.1462V26.475C107.779 26.4444 107.785 26.4141 107.796 26.386C107.808 26.3579 107.826 26.3326 107.848 26.3118C107.87 26.2897 107.896 26.2724 107.925 26.2608C107.953 26.2492 107.984 26.2435 108.015 26.2442H108.876C108.907 26.2436 108.937 26.2493 108.966 26.2609C108.994 26.2725 109.02 26.2898 109.042 26.3118C109.064 26.3326 109.082 26.3579 109.094 26.386C109.105 26.4141 109.111 26.4444 109.111 26.475V27.1462C109.111 27.1768 109.105 27.2071 109.094 27.2352C109.082 27.2633 109.064 27.2886 109.042 27.3094C109.02 27.3314 108.994 27.3487 108.966 27.3603C108.937 27.3719 108.907 27.3776 108.876 27.377H108.015ZM108.064 33.2017C108.033 33.2022 108.002 33.1965 107.973 33.1849C107.945 33.1733 107.919 33.156 107.897 33.1341C107.875 33.1131 107.857 33.0878 107.846 33.0597C107.834 33.0316 107.828 33.0014 107.829 32.9709V28.444C107.828 28.4136 107.834 28.3833 107.846 28.3552C107.857 28.3271 107.875 28.3018 107.897 28.2808C107.919 28.2589 107.945 28.2416 107.973 28.23C108.002 28.2184 108.033 28.2127 108.064 28.2132H108.827C108.857 28.2115 108.888 28.2163 108.917 28.2272C108.946 28.2381 108.972 28.2549 108.994 28.2766C109.016 28.2983 109.034 28.3243 109.046 28.3531C109.057 28.382 109.063 28.4129 109.062 28.444V32.9727C109.063 33.0038 109.057 33.0347 109.046 33.0635C109.034 33.0923 109.016 33.1184 108.994 33.1401C108.972 33.1618 108.946 33.1786 108.917 33.1895C108.888 33.2004 108.857 33.2051 108.827 33.2034L108.064 33.2017Z" fill="#212121"/>
<path d="M111.597 33.2038C111.566 33.2043 111.535 33.1986 111.507 33.187C111.478 33.1754 111.452 33.1582 111.43 33.1363C111.408 33.1153 111.391 33.09 111.379 33.0619C111.367 33.0338 111.361 33.0036 111.361 32.973V28.4444C111.361 28.4139 111.367 28.3836 111.379 28.3555C111.391 28.3275 111.408 28.3021 111.43 28.2812C111.452 28.2593 111.478 28.242 111.507 28.2304C111.535 28.2188 111.566 28.2131 111.597 28.2136H112.35C112.381 28.2131 112.412 28.2188 112.44 28.2304C112.469 28.242 112.495 28.2593 112.517 28.2812C112.539 28.3022 112.556 28.3275 112.568 28.3556C112.58 28.3837 112.585 28.4139 112.585 28.4444V28.8472C112.763 28.6278 112.985 28.4485 113.236 28.3207C113.543 28.1738 113.88 28.1031 114.22 28.1145C114.586 28.1046 114.948 28.1956 115.268 28.3777C115.56 28.5534 115.795 28.8122 115.943 29.1218C116.108 29.4822 116.188 29.8762 116.177 30.2731V32.9695C116.178 32.9996 116.173 33.0296 116.162 33.0576C116.151 33.0856 116.135 33.1112 116.114 33.1327C116.091 33.1558 116.064 33.1737 116.034 33.1854C116.004 33.197 115.972 33.2021 115.94 33.2003H115.137C115.107 33.2019 115.076 33.197 115.047 33.1861C115.018 33.1751 114.992 33.1583 114.97 33.1366C114.948 33.115 114.931 33.0889 114.919 33.0602C114.907 33.0314 114.902 33.0006 114.903 32.9695V30.3345C114.903 29.9501 114.806 29.6518 114.614 29.4368C114.422 29.2218 114.146 29.1157 113.787 29.1157C113.428 29.1157 113.155 29.2227 112.95 29.4368C112.745 29.6509 112.641 29.9501 112.641 30.3345V32.973C112.642 33.0036 112.636 33.0339 112.624 33.062C112.612 33.0901 112.595 33.1154 112.573 33.1363C112.551 33.1581 112.525 33.1754 112.497 33.187C112.468 33.1986 112.438 33.2043 112.407 33.2038H111.597Z" fill="#212121"/>
<path d="M120.601 33.299C119.883 33.299 119.314 33.0943 118.893 32.6848C118.473 32.2753 118.246 31.6965 118.213 30.9483C118.2 30.7821 118.2 30.6152 118.213 30.449C118.227 30.0143 118.34 29.5889 118.546 29.2065C118.735 28.8639 119.019 28.5839 119.362 28.4001C119.746 28.2036 120.171 28.1065 120.601 28.1175C121.122 28.1175 121.561 28.2246 121.917 28.4387C122.269 28.6481 122.55 28.9589 122.725 29.3311C122.914 29.741 123.008 30.1891 122.999 30.6412V30.8421C123 30.8726 122.994 30.9029 122.982 30.931C122.97 30.959 122.953 30.9844 122.931 31.0053C122.907 31.0275 122.88 31.045 122.85 31.0565C122.821 31.0681 122.789 31.0737 122.757 31.0729H119.488V31.1501C119.498 31.3686 119.547 31.5833 119.634 31.7836C119.714 31.97 119.843 32.1308 120.006 32.2487C120.179 32.3691 120.384 32.4306 120.594 32.4242C120.756 32.4291 120.918 32.3992 121.068 32.3364C121.181 32.2882 121.287 32.2238 121.382 32.1451C121.446 32.0926 121.504 32.0338 121.556 31.9696C121.593 31.9134 121.641 31.8658 121.697 31.8301C121.749 31.8117 121.804 31.8037 121.859 31.8064H122.652C122.711 31.8043 122.769 31.825 122.813 31.8644C122.834 31.8818 122.849 31.9041 122.859 31.9293C122.868 31.9544 122.871 31.9816 122.867 32.0083C122.846 32.1448 122.79 32.2735 122.706 32.3821C122.586 32.5484 122.439 32.6929 122.271 32.8094C122.055 32.96 121.817 33.0763 121.566 33.1542C121.254 33.2541 120.928 33.303 120.601 33.299ZM119.485 30.2858H121.717V30.2568C121.721 30.026 121.676 29.797 121.584 29.5856C121.503 29.4014 121.37 29.2449 121.203 29.1345C121.02 29.0276 120.812 28.9713 120.601 28.9713C120.389 28.9713 120.182 29.0276 119.999 29.1345C119.831 29.2449 119.699 29.4014 119.617 29.5856C119.525 29.797 119.48 30.026 119.485 30.2568V30.2858Z" fill="#212121"/>
<path d="M13.1927 14.667H1.33308C0.596842 14.667 0 15.2696 0 16.013V27.9879C0 28.7313 0.596842 29.334 1.33308 29.334H13.1927C13.9289 29.334 14.5257 28.7313 14.5257 27.9879V16.013C14.5257 15.2696 13.9289 14.667 13.1927 14.667Z" fill="#19BE6F"/>
<path d="M27.7181 0H15.8585C15.1222 0 14.5254 0.602644 14.5254 1.34604V13.3209C14.5254 14.0643 15.1222 14.667 15.8585 14.667H27.7181C28.4543 14.667 29.0511 14.0643 29.0511 13.3209V1.34604C29.0511 0.602644 28.4543 0 27.7181 0Z" fill="#19BE6F"/>
<path d="M27.6927 29.333H15.8331C15.0968 29.333 14.5 29.9357 14.5 30.6791V42.6539C14.5 43.3973 15.0968 44 15.8331 44H27.6927C28.4289 44 29.0257 43.3973 29.0257 42.6539V30.6791C29.0257 29.9357 28.4289 29.333 27.6927 29.333Z" fill="#19BE6F"/>
<path d="M43.6063 21.0767C43.5966 20.2363 43.3698 19.4129 42.9482 18.6882C42.5266 17.9634 41.9249 17.3624 41.2025 16.9447C40.4174 16.4952 39.5311 16.2568 38.6285 16.2524H22.1448C21.2445 16.2524 20.3529 16.2287 19.4874 16.5402C17.8136 17.1421 16.4988 18.597 16.2528 20.4011C16.1781 20.9477 16.2033 21.504 16.2033 22.0551C16.2033 22.6693 16.1833 23.273 16.3085 23.875C16.6761 25.6378 18.1247 27.0339 19.8237 27.4998C20.6214 27.7183 21.4418 27.6814 22.2569 27.6814H36.8522C37.5248 27.6814 38.2035 27.7104 38.8753 27.6753C40.6785 27.5805 42.4183 26.5135 43.1778 24.8297C43.7123 23.6451 43.6176 22.3455 43.6063 21.0767ZM29.0866 18.6101H22.7097C21.9276 18.6101 21.9276 19.8386 22.7097 19.8386H29.0866V26.4504H27.1652C25.2055 26.4504 23.2459 26.4565 21.2854 26.4504C20.0348 26.446 18.8199 25.9344 18.07 24.892C17.3104 23.8337 17.4199 22.6219 17.4199 21.3908C17.4199 19.9729 17.9622 18.7382 19.2197 18.0056C20.0288 17.5344 20.8865 17.4791 21.7877 17.4791H29.0875L29.0866 18.6101ZM42.3827 23.1379C42.2906 24.7639 40.9557 26.0415 39.4323 26.3696C38.7606 26.5144 38.0176 26.4512 37.3336 26.4512H30.3041V19.8395H37.4249C38.207 19.8395 38.207 18.611 37.4249 18.611H30.3041V17.4817H38.6285C40.2171 17.5036 41.7665 18.4724 42.2428 20.0545C42.4061 20.5994 42.3888 21.1452 42.3888 21.7067C42.3888 22.1823 42.4087 22.6623 42.3818 23.1379H42.3827Z" fill="#19BE6F"/>
<path d="M52.4487 22.5861C52.3909 22.5892 52.3331 22.5799 52.279 22.5589C52.2249 22.5379 52.1758 22.5057 52.1348 22.4644C52.0939 22.423 52.062 22.3734 52.0412 22.3188C52.0204 22.2642 52.0112 22.2058 52.0142 22.1474V10.7859C52.0115 10.7275 52.0209 10.6693 52.0417 10.6148C52.0626 10.5603 52.0945 10.5108 52.1354 10.4695C52.1763 10.4282 52.2253 10.396 52.2793 10.3749C52.3332 10.3539 52.391 10.3444 52.4487 10.3471H56.9503C58.0806 10.3471 59.0443 10.5308 59.8415 10.8982C60.6013 11.2331 61.2416 11.7942 61.6769 12.5066C62.1039 13.2086 62.3356 14.0796 62.3721 15.1197C62.3831 15.6333 62.3889 16.082 62.3895 16.4658C62.3901 16.8495 62.3843 17.2923 62.3721 17.7943C62.3252 18.8776 62.0972 19.775 61.6882 20.4863C61.28 21.1949 60.6539 21.7494 59.905 22.0658C59.1257 22.4098 58.1698 22.5818 57.0372 22.5818L52.4487 22.5861ZM55.1149 20.0687H56.9503C57.4462 20.0687 57.8587 19.99 58.1878 19.8326C58.5131 19.6789 58.7761 19.4167 58.9325 19.0903C59.0994 18.7516 59.1889 18.3085 59.2011 17.7609C59.2237 17.4228 59.2381 17.1198 59.2445 16.8519C59.2509 16.5839 59.2509 16.316 59.2445 16.0481C59.2381 15.7808 59.2237 15.4836 59.2011 15.1566C59.1779 14.3645 58.9731 13.7848 58.5867 13.4174C58.2002 13.0501 57.6258 12.8664 56.8634 12.8664H55.1149V20.0687Z" fill="#212121"/>
<path d="M68.652 22.7607C67.6834 22.7607 66.8668 22.6033 66.2023 22.2886C65.5705 22.0029 65.0393 21.5305 64.6789 20.9338C64.3272 20.3488 64.1282 19.6468 64.0818 18.8278C64.0697 18.5944 64.0645 18.3294 64.0645 18.032C64.0645 17.7345 64.0697 17.4756 64.0818 17.2545C64.1282 16.4273 64.3359 15.7222 64.7049 15.1389C65.0825 14.5491 65.6204 14.0818 66.2544 13.7929C66.9183 13.4782 67.7175 13.3208 68.652 13.3208C69.5987 13.3208 70.404 13.4782 71.0679 13.7929C71.7016 14.0822 72.2394 14.5495 72.6174 15.1389C72.987 15.7239 73.1947 16.4291 73.2405 17.2545C73.2518 17.4756 73.2579 17.7354 73.2579 18.032C73.2579 18.3285 73.2518 18.5944 73.2405 18.8278C73.1947 19.6468 72.9954 20.3488 72.6426 20.9338C72.2822 21.53 71.7514 22.0021 71.1201 22.2877C70.4561 22.6036 69.6335 22.7612 68.652 22.7607ZM68.652 20.6284C69.1734 20.6284 69.55 20.471 69.7818 20.1563C70.0135 19.8416 70.1491 19.3695 70.1885 18.7401C70.1995 18.5646 70.2053 18.3306 70.2058 18.0381C70.2064 17.7456 70.2006 17.5116 70.1885 17.3361C70.1543 16.7184 70.0187 16.2504 69.7818 15.9322C69.5448 15.6139 69.1682 15.4536 68.652 15.4513C68.1445 15.4513 67.7679 15.6116 67.5223 15.9322C67.2767 16.2527 67.144 16.7207 67.1243 17.3361C67.1133 17.5116 67.1075 17.7456 67.1069 18.0381C67.1063 18.3306 67.1121 18.5646 67.1243 18.7401C67.1475 19.3695 67.2801 19.8416 67.5223 20.1563C67.7645 20.471 68.141 20.6284 68.652 20.6284Z" fill="#212121"/>
<path d="M79.2667 22.7607C78.4116 22.7607 77.6555 22.6033 76.9986 22.2886C76.359 21.9898 75.8166 21.5139 75.4343 20.9162C75.0473 20.3166 74.8364 19.5971 74.8017 18.7576C74.7907 18.5716 74.7852 18.3356 74.7852 18.0495C74.7852 17.7634 74.7907 17.5274 74.8017 17.3414C74.8364 16.4914 75.0444 15.766 75.4256 15.1652C75.8056 14.5655 76.3487 14.0891 76.9899 13.7929C77.6526 13.4782 78.4116 13.3208 79.2667 13.3208C80.0627 13.3208 80.7435 13.4346 81.3089 13.6621C81.819 13.855 82.2888 14.1425 82.6941 14.5098C83.0203 14.8066 83.2929 15.1585 83.4997 15.5496C83.6582 15.8379 83.7553 16.1565 83.7848 16.485C83.7906 16.5421 83.7826 16.5997 83.7616 16.653C83.7405 16.7064 83.7071 16.7538 83.664 16.7912C83.5809 16.8743 83.4689 16.9212 83.352 16.922H81.1534C81.048 16.9284 80.9438 16.8974 80.8588 16.8342C80.7787 16.7601 80.714 16.6706 80.6685 16.571C80.5306 16.2094 80.3547 15.9529 80.141 15.8014C79.8966 15.6414 79.609 15.562 79.318 15.5742C78.8545 15.5742 78.4997 15.7257 78.2534 16.0287C78.0072 16.3317 77.8716 16.7979 77.8467 17.4274C77.8357 17.8954 77.8357 18.3089 77.8467 18.6681C77.8693 19.3116 78.0049 19.7778 78.2534 20.0668C78.502 20.3558 78.8568 20.502 79.318 20.5055C79.676 20.5055 79.9587 20.4298 80.1662 20.2783C80.3736 20.1268 80.541 19.8706 80.6685 19.5096C80.7137 19.4098 80.7784 19.3203 80.8588 19.2464C80.9438 19.1832 81.048 19.1522 81.1534 19.1586H83.352C83.4691 19.1593 83.5812 19.2066 83.664 19.2902C83.7073 19.3273 83.7409 19.3745 83.762 19.4278C83.783 19.481 83.7909 19.5386 83.7848 19.5956C83.7637 19.8337 83.705 20.0668 83.611 20.2862C83.4868 20.5838 83.3237 20.8633 83.1261 21.1171C82.8833 21.4307 82.5943 21.7047 82.2692 21.9297C81.88 22.1985 81.4504 22.402 80.9969 22.5325C80.4343 22.6933 79.8514 22.7702 79.2667 22.7607Z" fill="#212121"/>
<path d="M90.8126 22.5861C90.074 22.5861 89.4367 22.4668 88.9008 22.2281C88.3785 22.0014 87.944 21.6085 87.6633 21.1093C87.3736 20.6021 87.2288 19.9464 87.2288 19.142V15.7857H85.8801C85.7615 15.789 85.6463 15.7452 85.5594 15.6637C85.5168 15.6235 85.4833 15.5747 85.461 15.5203C85.4386 15.466 85.428 15.4075 85.4299 15.3487V13.9325C85.428 13.8738 85.4386 13.8154 85.461 13.7613C85.4833 13.7071 85.5169 13.6583 85.5594 13.6183C85.6462 13.5366 85.7614 13.4925 85.8801 13.4955H87.2305V10.6112C87.2287 10.5526 87.2393 10.4942 87.2616 10.44C87.2839 10.3858 87.3175 10.3371 87.36 10.2971C87.4414 10.2179 87.5502 10.1738 87.6633 10.1743H89.6716C89.7294 10.1716 89.787 10.1812 89.8409 10.2023C89.8948 10.2234 89.9437 10.2557 89.9846 10.2969C90.0255 10.3382 90.0574 10.3876 90.0783 10.442C90.0992 10.4965 90.1087 10.5547 90.1061 10.613V13.4955H92.27C92.3278 13.4927 92.3855 13.5022 92.4394 13.5233C92.4934 13.5443 92.5424 13.5766 92.5833 13.6179C92.6242 13.6592 92.6561 13.7086 92.677 13.7631C92.6979 13.8176 92.7072 13.8759 92.7045 13.9342V15.3505C92.7075 15.4089 92.6983 15.4673 92.6775 15.5219C92.6568 15.5765 92.6249 15.6261 92.5839 15.6674C92.5429 15.7088 92.4938 15.741 92.4398 15.762C92.3857 15.783 92.3278 15.7922 92.27 15.7892H90.1061V18.9007C90.1061 19.2973 90.1811 19.6121 90.3312 19.8449C90.4812 20.0777 90.7353 20.1947 91.0933 20.1959H92.4264C92.4842 20.1931 92.5419 20.2026 92.5959 20.2237C92.6498 20.2447 92.6988 20.2769 92.7397 20.3183C92.7806 20.3596 92.8125 20.409 92.8334 20.4635C92.8543 20.518 92.8636 20.5763 92.8609 20.6346V22.1553C92.8636 22.2136 92.8543 22.2719 92.8334 22.3264C92.8125 22.3808 92.7806 22.4303 92.7397 22.4716C92.6988 22.5129 92.6498 22.5451 92.5959 22.5662C92.5419 22.5873 92.4842 22.5968 92.4264 22.594L90.8126 22.5861Z" fill="#212121"/>
<path d="M100.839 22.5862C100.72 22.5898 100.605 22.5459 100.518 22.4643C100.476 22.4241 100.442 22.3752 100.42 22.3209C100.398 22.2666 100.387 22.208 100.389 22.1493V20.9076C100.397 20.7803 100.421 20.6545 100.459 20.5329C100.525 20.3369 100.653 20.168 100.823 20.0521L102.624 18.2691C103.547 17.5583 104.306 16.9552 104.901 16.4597C105.496 15.9642 105.937 15.5255 106.225 15.1435C106.513 14.7592 106.66 14.3977 106.66 14.0598C106.672 13.7053 106.566 13.3569 106.356 13.0718C106.155 12.8097 105.807 12.6787 105.314 12.6787C105.019 12.668 104.727 12.7439 104.473 12.8972C104.255 13.0357 104.079 13.2321 103.963 13.4649C103.85 13.6914 103.768 13.9327 103.721 14.1818C103.705 14.2476 103.676 14.3094 103.636 14.3636C103.596 14.4178 103.545 14.4631 103.487 14.4968C103.378 14.5554 103.256 14.5855 103.132 14.5846H100.968C100.92 14.5858 100.872 14.5771 100.827 14.559C100.782 14.541 100.742 14.5139 100.708 14.4795C100.674 14.4451 100.647 14.4041 100.629 14.3589C100.612 14.3138 100.603 14.2655 100.604 14.2169C100.612 13.6732 100.733 13.1372 100.959 12.6436C101.188 12.1494 101.513 11.7066 101.915 11.3414C102.343 10.9516 102.843 10.6515 103.386 10.4587C104.007 10.2406 104.66 10.134 105.317 10.1437C106.298 10.1437 107.132 10.301 107.819 10.6157C108.506 10.9305 109.028 11.3692 109.383 11.932C109.749 12.5268 109.935 13.2161 109.919 13.9159C109.923 14.4714 109.796 15.0197 109.548 15.5156C109.273 16.0451 108.913 16.5249 108.483 16.9353C107.972 17.4317 107.431 17.8959 106.864 18.3252L105.271 19.9512H109.72C109.839 19.9478 109.954 19.9916 110.041 20.0732C110.084 20.1133 110.117 20.1622 110.14 20.2165C110.162 20.2709 110.172 20.3294 110.171 20.3882V22.1536C110.172 22.2124 110.162 22.2709 110.14 22.3253C110.117 22.3796 110.084 22.4285 110.041 22.4687C109.954 22.5502 109.839 22.594 109.72 22.5906L100.839 22.5862Z" fill="#19BE6F"/>
<path d="M118.449 22.586C118.336 22.5867 118.227 22.5429 118.146 22.464C118.103 22.4238 118.07 22.3749 118.047 22.3206C118.025 22.2663 118.014 22.2078 118.016 22.149V20.1738H112.628C112.515 20.1743 112.406 20.1302 112.325 20.051C112.282 20.0109 112.249 19.9622 112.227 19.908C112.204 19.8539 112.194 19.7955 112.196 19.7368V18.0758C112.194 17.9762 112.215 17.8775 112.256 17.7871C112.296 17.6993 112.343 17.6116 112.386 17.5335L117.426 10.6462C117.501 10.5479 117.598 10.4694 117.71 10.4176C117.822 10.3658 117.944 10.3421 118.067 10.3487H120.577C120.696 10.3458 120.811 10.3899 120.897 10.4716C120.94 10.5114 120.974 10.5601 120.996 10.6143C121.019 10.6685 121.029 10.727 121.027 10.7857V17.5686H122.551C122.609 17.5665 122.667 17.5762 122.722 17.5973C122.776 17.6184 122.826 17.6504 122.868 17.6914C122.91 17.7323 122.944 17.7814 122.966 17.8357C122.989 17.89 123.001 17.9484 123.001 18.0073V19.7386C123.003 19.7973 122.992 19.8558 122.97 19.91C122.947 19.9642 122.913 20.0129 122.871 20.0527C122.79 20.1322 122.681 20.1764 122.568 20.1756H121.027V22.1508C121.029 22.2096 121.019 22.2682 120.996 22.3226C120.974 22.3769 120.94 22.4257 120.897 22.4658C120.81 22.5472 120.696 22.591 120.577 22.5877L118.449 22.586ZM115.177 17.6914H118.086V13.5673L115.177 17.6914Z" fill="#19BE6F"/>
</g>
<defs>
<clipPath id="clip0_11687_66503">
<rect width="123" height="44" fill="white"/>
</clipPath>
</defs>
</svg>
